<svg width="125" height="125" viewBox="0 0 125 125" fill="none" xmlns="http://www.w3.org/2000/svg">
<path opacity="0.4" d="M84.3232 10.4167H40.7295C21.7191 10.4167 10.417 21.7188 10.417 40.6771V84.2709C10.417 103.229 21.7191 114.531 40.6774 114.531H84.2712C103.229 114.531 114.532 103.229 114.532 84.2709V40.6771C114.584 21.7188 103.282 10.4167 84.3232 10.4167Z" fill="black"/>
<path d="M84.3232 10.417C84.4276 10.417 84.5318 10.4183 84.6357 10.4189V64.6875C84.6357 68.0208 83.6455 70.5212 81.9268 71.5107C80.1559 72.5521 77.3435 72.0311 74.2188 70.1562L67.3438 66.042C64.6875 64.4274 60.3125 64.4274 57.6562 66.042L50.7812 70.1562C47.6565 72.0311 44.8441 72.5 43.0732 71.5107C41.3545 70.5212 40.3643 68.0208 40.3643 64.6875V10.4199C40.4856 10.419 40.6075 10.417 40.7295 10.417H84.3232Z" fill="black"/>
</svg>
