<svg width="125" height="125" viewBox="0 0 125 125" fill="none" xmlns="http://www.w3.org/2000/svg">
<path opacity="0.4" d="M104.167 51.25C107.031 51.25 109.375 53.5938 109.375 56.4583V88.5417C109.375 104.167 101.562 114.583 83.3333 114.583H41.6667C23.4375 114.583 15.625 104.167 15.625 88.5417V56.4583C15.625 53.5938 17.9688 51.25 20.8333 51.25H104.167Z" fill="black"/>
<path d="M87.2395 18.5417V10.4167C87.2395 8.28127 85.4687 6.51044 83.3333 6.51044C81.1978 6.51044 79.427 8.28127 79.427 10.4167V18.2292H45.5728V10.4167C45.5728 8.28127 43.802 6.51044 41.6666 6.51044C39.5312 6.51044 37.7603 8.28127 37.7603 10.4167V18.5417C23.6978 19.8438 16.8749 28.2292 15.8332 40.6771C15.7291 42.1875 16.9791 43.4375 18.4374 43.4375H106.562C108.073 43.4375 109.323 42.1354 109.167 40.6771C108.125 28.2292 101.302 19.8438 87.2395 18.5417Z" fill="black"/>
<path d="M81.5625 96.1979L77.7083 92.3438C79.6875 89.323 80.8854 85.6771 80.8854 81.7709C80.8854 71.1459 72.2396 62.5 61.6146 62.5C50.9896 62.5 42.3438 71.1459 42.3438 81.7709C42.3438 92.3959 50.9896 101.042 61.6146 101.042C65.5208 101.042 69.1666 99.8438 72.1875 97.8646L76.0417 101.719C76.8229 102.5 77.8125 102.865 78.8021 102.865C79.7917 102.865 80.7812 102.5 81.5625 101.719C83.0729 100.208 83.0729 97.7083 81.5625 96.1979Z" fill="black"/>
</svg>
