<svg width="125" height="125" viewBox="0 0 125 125" fill="none" xmlns="http://www.w3.org/2000/svg">
<path opacity="0.4" d="M103.542 109.063C98.5941 112.708 92.0836 114.583 84.3232 114.583H40.6774C39.4274 114.583 38.1774 114.531 36.9795 114.375L72.917 78.4375L103.542 109.063Z" fill="black"/>
<path opacity="0.4" d="M114.583 40.6771V84.323C114.583 92.0834 112.708 98.5938 109.063 103.542L78.4375 72.9167L114.375 36.9792C114.531 38.1771 114.583 39.4271 114.583 40.6771Z" fill="black"/>
<path opacity="0.4" d="M78.4378 72.9167L109.063 103.542C107.552 105.729 105.73 107.552 103.542 109.063L72.917 78.4375L36.9795 114.375C33.6462 114.167 30.6254 113.49 27.8649 112.448C16.7191 108.385 10.417 98.4896 10.417 84.323V40.6771C10.417 21.7188 21.7191 10.4167 40.6774 10.4167H84.3233C98.4899 10.4167 108.386 16.7188 112.448 27.8646C113.49 30.625 114.167 33.6458 114.375 36.9792L78.4378 72.9167Z" fill="black"/>
<path d="M78.4371 72.9167L109.062 103.542C107.552 105.729 105.729 107.552 103.541 109.062L72.9163 78.4375L36.9788 114.375C33.6455 114.167 30.6247 113.49 27.8643 112.448L29.8954 110.417L112.448 27.8646C113.489 30.625 114.166 33.6458 114.375 36.9791L78.4371 72.9167Z" fill="black"/>
<path d="M63.7503 41.3021C61.7711 32.7083 54.167 28.8541 47.5003 28.8021C40.8337 28.8021 33.2295 32.6562 31.2504 41.25C29.0629 50.7812 34.8962 58.75 40.1566 63.75C42.2399 65.7291 44.8441 66.6667 47.5003 66.6667C50.1566 66.6667 52.7608 65.6771 54.8441 63.75C60.1045 58.75 65.9378 50.7812 63.7503 41.3021ZM47.6566 49.4271C44.792 49.4271 42.4482 47.0833 42.4482 44.2187C42.4482 41.3541 44.7399 39.0104 47.6566 39.0104H47.7087C50.5733 39.0104 52.917 41.3541 52.917 44.2187C52.917 47.0833 50.5212 49.4271 47.6566 49.4271Z" fill="black"/>
</svg>
