<svg width="49" height="50" viewBox="0 0 49 50" fill="none" xmlns="http://www.w3.org/2000/svg">
<path d="M37.4443 29.3489L32.9935 25.776C32.3606 25.286 31.5643 25.0002 30.7477 25.0002H26.0314V18.8752H35.1577C37.1381 18.8752 38.7306 17.2827 38.7306 15.3022V8.15641C38.7306 6.176 37.1381 4.5835 35.1577 4.5835H18.2935C17.4973 4.5835 16.701 4.86933 16.0681 5.35933L11.5968 8.93225C9.82059 10.3614 9.82059 13.0972 11.5968 14.5264L16.0681 18.0993C16.701 18.5893 17.4973 18.8752 18.2935 18.8752H22.9689V25.0002H13.8835C11.9031 25.0002 10.3106 26.5927 10.3106 28.5731V35.7189C10.3106 37.6993 11.9031 39.2918 13.8835 39.2918H22.9689V43.8856H18.3752C17.5381 43.8856 16.8439 44.5797 16.8439 45.4168C16.8439 46.2539 17.5381 46.9481 18.3752 46.9481H30.6252C31.4622 46.9481 32.1564 46.2539 32.1564 45.4168C32.1564 44.5797 31.4622 43.8856 30.6252 43.8856H26.0314V39.2918H30.7477C31.5643 39.2918 32.3606 39.006 32.9935 38.516L37.4443 34.9431C39.241 33.5139 39.241 30.7781 37.4443 29.3489Z" fill="#292D32"/>
</svg>
